<mxfile host="app.diagrams.net" modified="2020-10-08T12:32:44.100Z" agent="5.0 (Macintosh; Intel Mac OS X 10_13_6) AppleWebKit/605.1.15 (KHTML, like Gecko) Version/13.1.1 Safari/605.1.15" etag="vUoGmGvghFDta1gENM5w" version="13.7.8" type="github">
  <diagram name="Page-1" id="099fd60b-425b-db50-ffb0-6b813814b670">
    <mxGraphModel dx="946" dy="639" grid="1" gridSize="10" guides="1" tooltips="1" connect="1" arrows="1" fold="1" page="1" pageScale="1" pageWidth="1654" pageHeight="1169" background="#ffffff" math="1" shadow="0">
      <root>
        <mxCell id="0" />
        <mxCell id="1" parent="0" />
        <mxCell id="qzv8ObqGM4RlT5OVhcKU-33" value="" style="endArrow=none;html=1;" parent="1" edge="1">
          <mxGeometry width="50" height="50" relative="1" as="geometry">
            <mxPoint x="38" y="443" as="sourcePoint" />
            <mxPoint x="90" y="443" as="targetPoint" />
            <Array as="points">
              <mxPoint x="68" y="443" />
            </Array>
          </mxGeometry>
        </mxCell>
        <mxCell id="qzv8ObqGM4RlT5OVhcKU-34" value="" style="whiteSpace=wrap;html=1;" parent="1" vertex="1">
          <mxGeometry x="38" y="455" width="52" height="105" as="geometry" />
        </mxCell>
        <mxCell id="qzv8ObqGM4RlT5OVhcKU-35" value="" style="rounded=0;whiteSpace=wrap;html=1;" parent="1" vertex="1">
          <mxGeometry x="121" y="455" width="192" height="105" as="geometry" />
        </mxCell>
        <mxCell id="qzv8ObqGM4RlT5OVhcKU-36" value="" style="rounded=0;whiteSpace=wrap;html=1;" parent="1" vertex="1">
          <mxGeometry x="38" y="592" width="272" height="105" as="geometry" />
        </mxCell>
        <mxCell id="qzv8ObqGM4RlT5OVhcKU-37" value="" style="triangle;whiteSpace=wrap;html=1;" parent="1" vertex="1">
          <mxGeometry x="90" y="492.5" width="30" height="31" as="geometry" />
        </mxCell>
        <mxCell id="qzv8ObqGM4RlT5OVhcKU-38" value="" style="triangle;whiteSpace=wrap;html=1;rotation=90;" parent="1" vertex="1">
          <mxGeometry x="90" y="560" width="31" height="31" as="geometry" />
        </mxCell>
        <mxCell id="qzv8ObqGM4RlT5OVhcKU-39" value="&lt;font face=&quot;Times New Roman&quot;&gt;&lt;b&gt;Theorem&lt;/b&gt;&lt;/font&gt;" style="text;html=1;align=center;verticalAlign=middle;resizable=0;points=[];autosize=1;" parent="1" vertex="1">
          <mxGeometry x="34" y="440" width="60" height="20" as="geometry" />
        </mxCell>
        <mxCell id="3yBGpVLWtC5fqik4t707-15" value="" style="group" vertex="1" connectable="0" parent="1">
          <mxGeometry x="390" y="420" width="293" height="259" as="geometry" />
        </mxCell>
        <mxCell id="qzv8ObqGM4RlT5OVhcKU-3" value="&lt;font face=&quot;Times New Roman&quot; size=&quot;1&quot;&gt;&lt;b&gt;Begin Definition&lt;/b&gt;&lt;/font&gt;" style="text;html=1;align=left;verticalAlign=middle;resizable=0;points=[];autosize=1;" parent="3yBGpVLWtC5fqik4t707-15" vertex="1">
          <mxGeometry width="90" height="20" as="geometry" />
        </mxCell>
        <mxCell id="qzv8ObqGM4RlT5OVhcKU-9" value="" style="endArrow=none;html=1;" parent="3yBGpVLWtC5fqik4t707-15" edge="1">
          <mxGeometry width="50" height="50" relative="1" as="geometry">
            <mxPoint x="2" y="5" as="sourcePoint" />
            <mxPoint x="73" y="5" as="targetPoint" />
            <Array as="points" />
          </mxGeometry>
        </mxCell>
        <mxCell id="qzv8ObqGM4RlT5OVhcKU-10" value="" style="whiteSpace=wrap;html=1;" parent="3yBGpVLWtC5fqik4t707-15" vertex="1">
          <mxGeometry x="2" y="17" width="70" height="105" as="geometry" />
        </mxCell>
        <mxCell id="qzv8ObqGM4RlT5OVhcKU-12" value="" style="rounded=0;whiteSpace=wrap;html=1;" parent="3yBGpVLWtC5fqik4t707-15" vertex="1">
          <mxGeometry x="87" y="17" width="205" height="105" as="geometry" />
        </mxCell>
        <mxCell id="qzv8ObqGM4RlT5OVhcKU-13" value="" style="rounded=0;whiteSpace=wrap;html=1;" parent="3yBGpVLWtC5fqik4t707-15" vertex="1">
          <mxGeometry x="2" y="138" width="289" height="105" as="geometry" />
        </mxCell>
        <mxCell id="qzv8ObqGM4RlT5OVhcKU-21" value="" style="triangle;whiteSpace=wrap;html=1;" parent="3yBGpVLWtC5fqik4t707-15" vertex="1">
          <mxGeometry x="72" y="62" width="15" height="15" as="geometry" />
        </mxCell>
        <mxCell id="qzv8ObqGM4RlT5OVhcKU-22" value="" style="triangle;whiteSpace=wrap;html=1;rotation=90;" parent="3yBGpVLWtC5fqik4t707-15" vertex="1">
          <mxGeometry x="72" y="122" width="15" height="15" as="geometry" />
        </mxCell>
        <mxCell id="3yBGpVLWtC5fqik4t707-1" value="&lt;font face=&quot;Times New Roman&quot; size=&quot;1&quot;&gt;&lt;b&gt;End Definition&lt;/b&gt;&lt;/font&gt;" style="text;html=1;align=right;verticalAlign=middle;resizable=0;points=[];autosize=1;" vertex="1" parent="3yBGpVLWtC5fqik4t707-15">
          <mxGeometry x="213" y="239" width="80" height="20" as="geometry" />
        </mxCell>
        <mxCell id="3yBGpVLWtC5fqik4t707-2" value="" style="endArrow=none;html=1;" edge="1" parent="3yBGpVLWtC5fqik4t707-15">
          <mxGeometry width="50" height="50" relative="1" as="geometry">
            <mxPoint x="227" y="255" as="sourcePoint" />
            <mxPoint x="291" y="255" as="targetPoint" />
            <Array as="points" />
          </mxGeometry>
        </mxCell>
        <mxCell id="3yBGpVLWtC5fqik4t707-18" value="" style="group" vertex="1" connectable="0" parent="1">
          <mxGeometry x="406" y="257" width="64" height="41" as="geometry" />
        </mxCell>
        <mxCell id="3yBGpVLWtC5fqik4t707-16" value="" style="group" vertex="1" connectable="0" parent="3yBGpVLWtC5fqik4t707-18">
          <mxGeometry width="64" height="41" as="geometry" />
        </mxCell>
        <mxCell id="3yBGpVLWtC5fqik4t707-13" value="" style="group" vertex="1" connectable="0" parent="3yBGpVLWtC5fqik4t707-16">
          <mxGeometry width="64" height="41" as="geometry" />
        </mxCell>
        <mxCell id="3yBGpVLWtC5fqik4t707-12" value="" style="group" vertex="1" connectable="0" parent="3yBGpVLWtC5fqik4t707-13">
          <mxGeometry width="64" height="41" as="geometry" />
        </mxCell>
        <mxCell id="3yBGpVLWtC5fqik4t707-5" value="" style="shape=sumEllipse;perimeter=ellipsePerimeter;whiteSpace=wrap;html=1;backgroundOutline=1;align=left;" vertex="1" parent="3yBGpVLWtC5fqik4t707-12">
          <mxGeometry x="12" width="40" height="40" as="geometry" />
        </mxCell>
        <mxCell id="3yBGpVLWtC5fqik4t707-6" value="$$f$$" style="text;html=1;strokeColor=none;fillColor=none;align=center;verticalAlign=middle;whiteSpace=wrap;rounded=0;" vertex="1" parent="3yBGpVLWtC5fqik4t707-12">
          <mxGeometry x="24" y="10" width="40" height="20" as="geometry" />
        </mxCell>
        <mxCell id="3yBGpVLWtC5fqik4t707-8" value="$$i$$" style="text;html=1;strokeColor=none;fillColor=none;align=center;verticalAlign=middle;whiteSpace=wrap;rounded=0;" vertex="1" parent="3yBGpVLWtC5fqik4t707-12">
          <mxGeometry x="12" y="21" width="40" height="20" as="geometry" />
        </mxCell>
        <mxCell id="3yBGpVLWtC5fqik4t707-9" value="$$j$$" style="text;html=1;strokeColor=none;fillColor=none;align=center;verticalAlign=middle;whiteSpace=wrap;rounded=0;" vertex="1" parent="3yBGpVLWtC5fqik4t707-12">
          <mxGeometry y="10" width="40" height="20" as="geometry" />
        </mxCell>
        <mxCell id="3yBGpVLWtC5fqik4t707-10" value="$$k$$" style="text;html=1;strokeColor=none;fillColor=none;align=center;verticalAlign=middle;whiteSpace=wrap;rounded=0;" vertex="1" parent="3yBGpVLWtC5fqik4t707-12">
          <mxGeometry x="12" width="40" height="20" as="geometry" />
        </mxCell>
        <mxCell id="3yBGpVLWtC5fqik4t707-19" value="" style="group" vertex="1" connectable="0" parent="1">
          <mxGeometry x="40" y="30" width="293" height="259" as="geometry" />
        </mxCell>
        <mxCell id="3yBGpVLWtC5fqik4t707-20" value="&lt;font face=&quot;Times New Roman&quot; size=&quot;1&quot;&gt;&lt;b&gt;Begin Notation&lt;/b&gt;&lt;/font&gt;" style="text;html=1;align=left;verticalAlign=middle;resizable=0;points=[];autosize=1;" vertex="1" parent="3yBGpVLWtC5fqik4t707-19">
          <mxGeometry width="80" height="20" as="geometry" />
        </mxCell>
        <mxCell id="3yBGpVLWtC5fqik4t707-21" value="" style="endArrow=none;html=1;" edge="1" parent="3yBGpVLWtC5fqik4t707-19">
          <mxGeometry width="50" height="50" relative="1" as="geometry">
            <mxPoint x="2" y="5" as="sourcePoint" />
            <mxPoint x="66" y="5" as="targetPoint" />
            <Array as="points" />
          </mxGeometry>
        </mxCell>
        <mxCell id="3yBGpVLWtC5fqik4t707-22" value="" style="whiteSpace=wrap;html=1;" vertex="1" parent="3yBGpVLWtC5fqik4t707-19">
          <mxGeometry x="2" y="17" width="70" height="105" as="geometry" />
        </mxCell>
        <mxCell id="3yBGpVLWtC5fqik4t707-23" value="" style="rounded=0;whiteSpace=wrap;html=1;" vertex="1" parent="3yBGpVLWtC5fqik4t707-19">
          <mxGeometry x="87" y="17" width="205" height="105" as="geometry" />
        </mxCell>
        <mxCell id="3yBGpVLWtC5fqik4t707-24" value="" style="rounded=0;whiteSpace=wrap;html=1;" vertex="1" parent="3yBGpVLWtC5fqik4t707-19">
          <mxGeometry x="2" y="138" width="289" height="105" as="geometry" />
        </mxCell>
        <mxCell id="3yBGpVLWtC5fqik4t707-25" value="" style="triangle;whiteSpace=wrap;html=1;" vertex="1" parent="3yBGpVLWtC5fqik4t707-19">
          <mxGeometry x="72" y="62" width="15" height="15" as="geometry" />
        </mxCell>
        <mxCell id="3yBGpVLWtC5fqik4t707-26" value="" style="triangle;whiteSpace=wrap;html=1;rotation=90;" vertex="1" parent="3yBGpVLWtC5fqik4t707-19">
          <mxGeometry x="72" y="122" width="15" height="15" as="geometry" />
        </mxCell>
        <mxCell id="3yBGpVLWtC5fqik4t707-27" value="&lt;font face=&quot;Times New Roman&quot; size=&quot;1&quot;&gt;&lt;b&gt;End Notation&lt;/b&gt;&lt;/font&gt;" style="text;html=1;align=right;verticalAlign=middle;resizable=0;points=[];autosize=1;" vertex="1" parent="3yBGpVLWtC5fqik4t707-19">
          <mxGeometry x="223" y="239" width="70" height="20" as="geometry" />
        </mxCell>
        <mxCell id="3yBGpVLWtC5fqik4t707-28" value="" style="endArrow=none;html=1;" edge="1" parent="3yBGpVLWtC5fqik4t707-19">
          <mxGeometry width="50" height="50" relative="1" as="geometry">
            <mxPoint x="232" y="255" as="sourcePoint" />
            <mxPoint x="291" y="255" as="targetPoint" />
            <Array as="points" />
          </mxGeometry>
        </mxCell>
      </root>
    </mxGraphModel>
  </diagram>
</mxfile>
